<mxfile modified="2022-05-19T11:23:24.138Z" host="app.diagrams.net" agent="5.0 (Macintosh; Intel Mac OS X 10_15_7) AppleWebKit/537.36 (KHTML, like Gecko) Chrome/101.0.4951.64 Safari/537.36" etag="gQXUgSamEHsMwcPcfinh" version="18.0.7" type="github">
  <diagram id="f106602c-feb2-e66a-4537-3a34d633f6aa" name="Page-1">
    <mxGraphModel dx="1616" dy="1129" grid="1" gridSize="10" guides="1" tooltips="1" connect="1" arrows="1" fold="1" page="1" pageScale="1" pageWidth="1169" pageHeight="827" background="none" math="0" shadow="0">
      <root>
        <mxCell id="0" />
        <mxCell id="1" parent="0" />
        <mxCell id="14" value="&lt;meta charset=&quot;utf-8&quot;&gt;&lt;b style=&quot;color: rgb(113, 113, 113); font-family: Helvetica; font-size: 14px; font-style: normal; font-variant-ligatures: normal; font-variant-caps: normal; letter-spacing: normal; orphans: 2; text-align: left; text-indent: 0px; text-transform: none; widows: 2; word-spacing: 0px; -webkit-text-stroke-width: 0px; background-color: rgb(248, 249, 250); text-decoration-thickness: initial; text-decoration-style: initial; text-decoration-color: initial;&quot;&gt;Kubernetes cluster&lt;/b&gt;" style="fillColor=#F6F6F6;strokeColor=none;shadow=0;gradientColor=none;fontSize=14;align=left;spacing=10;fontColor=#717171;9E9E9E;verticalAlign=top;spacingTop=-4;fontStyle=0;spacingLeft=40;html=1;" parent="1" vertex="1">
          <mxGeometry x="360" y="90" width="760" height="711" as="geometry" />
        </mxCell>
        <mxCell id="997" value="Multiple&lt;br&gt;Clients&lt;br&gt;API Requests&lt;br&gt;" style="rounded=1;absoluteArcSize=1;arcSize=2;html=1;strokeColor=none;gradientColor=none;shadow=0;dashed=0;fontSize=12;fontColor=#9E9E9E;align=left;verticalAlign=top;spacing=10;spacingTop=-4;fillColor=#F1F8E9;" parent="1" vertex="1">
          <mxGeometry x="60" y="279" width="90" height="230" as="geometry" />
        </mxCell>
        <mxCell id="818" value="Architecture: Backup and Archive &amp;gt; API Hosting" style="fillColor=#4DA1F5;strokeColor=none;shadow=1;gradientColor=none;fontSize=14;align=left;spacingLeft=50;fontColor=#ffffff;html=1;" parent="1" vertex="1">
          <mxGeometry x="260" y="40" width="650" height="40" as="geometry" />
        </mxCell>
        <mxCell id="989" value="" style="strokeColor=#dddddd;fillColor=#ffffff;shadow=1;strokeWidth=1;rounded=1;absoluteArcSize=1;arcSize=2;fontSize=11;fontColor=#9E9E9E;align=center;html=1;" parent="1" vertex="1">
          <mxGeometry x="440" y="294.5" width="130" height="60" as="geometry" />
        </mxCell>
        <mxCell id="991" value="" style="strokeColor=#dddddd;fillColor=#ffffff;shadow=1;strokeWidth=1;rounded=1;absoluteArcSize=1;arcSize=2;fontSize=11;fontColor=#9E9E9E;align=center;html=1;" parent="1" vertex="1">
          <mxGeometry x="730" y="110" width="360" height="200" as="geometry" />
        </mxCell>
        <mxCell id="993" value="" style="strokeColor=#dddddd;fillColor=#ffffff;shadow=1;strokeWidth=1;rounded=1;absoluteArcSize=1;arcSize=2;fontSize=11;fontColor=#9E9E9E;align=center;html=1;" parent="1" vertex="1">
          <mxGeometry x="730" y="320" width="360" height="218.88" as="geometry" />
        </mxCell>
        <mxCell id="995" value="" style="strokeColor=#dddddd;fillColor=#ffffff;shadow=1;strokeWidth=1;rounded=1;absoluteArcSize=1;arcSize=2;fontSize=11;fontColor=#9E9E9E;align=center;html=1;" parent="1" vertex="1">
          <mxGeometry x="730" y="550" width="360" height="214.5" as="geometry" />
        </mxCell>
        <mxCell id="rhZC0jBl0L4r4y7zgpdl-1008" value="" style="shape=ext;double=1;whiteSpace=wrap;html=1;aspect=fixed;shadow=1;strokeColor=#EAFFE0;fillColor=#D1FFD1;" vertex="1" parent="1">
          <mxGeometry x="920" y="594.25" width="138" height="138" as="geometry" />
        </mxCell>
        <mxCell id="rhZC0jBl0L4r4y7zgpdl-1005" value="" style="shape=image;html=1;verticalAlign=top;verticalLabelPosition=bottom;labelBackgroundColor=#ffffff;imageAspect=0;aspect=fixed;image=https://cdn0.iconfinder.com/data/icons/social-media-2127/48/social_media_social_media_logo_docker-128.png" vertex="1" parent="1">
          <mxGeometry x="974" y="639.25" width="58" height="58" as="geometry" />
        </mxCell>
        <mxCell id="rhZC0jBl0L4r4y7zgpdl-1009" value="" style="shape=ext;double=1;whiteSpace=wrap;html=1;aspect=fixed;shadow=1;strokeColor=#EAFFE0;fillColor=#D1FFD1;" vertex="1" parent="1">
          <mxGeometry x="770" y="141" width="138" height="138" as="geometry" />
        </mxCell>
        <mxCell id="rhZC0jBl0L4r4y7zgpdl-1010" value="" style="shape=ext;double=1;whiteSpace=wrap;html=1;aspect=fixed;shadow=1;strokeColor=#EAFFE0;fillColor=#D1FFD1;" vertex="1" parent="1">
          <mxGeometry x="934" y="141" width="138" height="138" as="geometry" />
        </mxCell>
        <mxCell id="rhZC0jBl0L4r4y7zgpdl-1011" value="" style="shape=ext;double=1;whiteSpace=wrap;html=1;aspect=fixed;shadow=1;strokeColor=#EAFFE0;fillColor=#D1FFD1;" vertex="1" parent="1">
          <mxGeometry x="880" y="326.5" width="198" height="198" as="geometry" />
        </mxCell>
        <mxCell id="rhZC0jBl0L4r4y7zgpdl-1007" value="" style="shape=image;html=1;verticalAlign=top;verticalLabelPosition=bottom;labelBackgroundColor=#ffffff;imageAspect=0;aspect=fixed;image=https://cdn0.iconfinder.com/data/icons/social-media-2127/48/social_media_social_media_logo_docker-128.png" vertex="1" parent="1">
          <mxGeometry x="886" y="436.5" width="88" height="88" as="geometry" />
        </mxCell>
        <mxCell id="rhZC0jBl0L4r4y7zgpdl-1006" value="" style="shape=image;html=1;verticalAlign=top;verticalLabelPosition=bottom;labelBackgroundColor=#ffffff;imageAspect=0;aspect=fixed;image=https://cdn0.iconfinder.com/data/icons/social-media-2127/48/social_media_social_media_logo_docker-128.png" vertex="1" parent="1">
          <mxGeometry x="974" y="414" width="90" height="90" as="geometry" />
        </mxCell>
        <mxCell id="rhZC0jBl0L4r4y7zgpdl-1004" value="" style="shape=image;html=1;verticalAlign=top;verticalLabelPosition=bottom;labelBackgroundColor=#ffffff;imageAspect=0;aspect=fixed;image=https://cdn0.iconfinder.com/data/icons/social-media-2127/48/social_media_social_media_logo_docker-128.png" vertex="1" parent="1">
          <mxGeometry x="900" y="340" width="60" height="60" as="geometry" />
        </mxCell>
        <mxCell id="rhZC0jBl0L4r4y7zgpdl-1003" value="" style="shape=image;html=1;verticalAlign=top;verticalLabelPosition=bottom;labelBackgroundColor=#ffffff;imageAspect=0;aspect=fixed;image=https://cdn0.iconfinder.com/data/icons/social-media-2127/48/social_media_social_media_logo_docker-128.png" vertex="1" parent="1">
          <mxGeometry x="800" y="146" width="103" height="103" as="geometry" />
        </mxCell>
        <mxCell id="rhZC0jBl0L4r4y7zgpdl-1002" value="" style="shape=image;html=1;verticalAlign=top;verticalLabelPosition=bottom;labelBackgroundColor=#ffffff;imageAspect=0;aspect=fixed;image=https://cdn0.iconfinder.com/data/icons/social-media-2127/48/social_media_social_media_logo_docker-128.png" vertex="1" parent="1">
          <mxGeometry x="956" y="163" width="94" height="94" as="geometry" />
        </mxCell>
        <mxCell id="rhZC0jBl0L4r4y7zgpdl-1012" value="Containers" style="strokeWidth=1;shadow=0;dashed=0;align=center;html=1;shape=mxgraph.mockup.text.textBox;fontColor=#666666;align=left;fontSize=17;spacingLeft=4;spacingTop=-3;strokeColor=#666666;mainText=;fillColor=#D1FFD1;" vertex="1" parent="1">
          <mxGeometry x="1140" y="399" width="100" height="30" as="geometry" />
        </mxCell>
        <mxCell id="rhZC0jBl0L4r4y7zgpdl-1013" value="" style="endArrow=none;html=1;rounded=0;" edge="1" parent="1" target="rhZC0jBl0L4r4y7zgpdl-1002">
          <mxGeometry width="50" height="50" relative="1" as="geometry">
            <mxPoint x="1190" y="400" as="sourcePoint" />
            <mxPoint x="1200" y="270" as="targetPoint" />
            <Array as="points">
              <mxPoint x="1190" y="310" />
            </Array>
          </mxGeometry>
        </mxCell>
        <mxCell id="rhZC0jBl0L4r4y7zgpdl-1014" value="" style="endArrow=none;html=1;rounded=0;" edge="1" parent="1" source="rhZC0jBl0L4r4y7zgpdl-1006">
          <mxGeometry width="50" height="50" relative="1" as="geometry">
            <mxPoint x="1140" y="479" as="sourcePoint" />
            <mxPoint x="1190" y="429" as="targetPoint" />
          </mxGeometry>
        </mxCell>
        <mxCell id="rhZC0jBl0L4r4y7zgpdl-1015" value="NODE 2" style="strokeWidth=1;shadow=0;dashed=0;align=center;html=1;shape=mxgraph.mockup.text.textBox;fontColor=#666666;align=left;fontSize=17;spacingLeft=4;spacingTop=-3;strokeColor=#FFFFFF;mainText=;fillColor=#D1FFD1;" vertex="1" parent="1">
          <mxGeometry x="740" y="504" width="80" height="30" as="geometry" />
        </mxCell>
        <mxCell id="rhZC0jBl0L4r4y7zgpdl-1016" value="POD" style="strokeWidth=1;shadow=0;dashed=0;align=center;html=1;shape=mxgraph.mockup.text.textBox;fontColor=#666666;align=left;fontSize=17;spacingLeft=4;spacingTop=-3;strokeColor=#666666;mainText=;fillColor=#FF7E33;" vertex="1" parent="1">
          <mxGeometry x="1010" y="340" width="48" height="30" as="geometry" />
        </mxCell>
        <mxCell id="rhZC0jBl0L4r4y7zgpdl-1017" value="POD" style="strokeWidth=1;shadow=0;dashed=0;align=center;html=1;shape=mxgraph.mockup.text.textBox;fontColor=#666666;align=left;fontSize=17;spacingLeft=4;spacingTop=-3;strokeColor=#666666;mainText=;fillColor=#FF7E33;" vertex="1" parent="1">
          <mxGeometry x="1016" y="146" width="48" height="30" as="geometry" />
        </mxCell>
        <mxCell id="rhZC0jBl0L4r4y7zgpdl-1018" value="POD" style="strokeWidth=1;shadow=0;dashed=0;align=center;html=1;shape=mxgraph.mockup.text.textBox;fontColor=#666666;align=left;fontSize=17;spacingLeft=4;spacingTop=-3;strokeColor=#666666;mainText=;fillColor=#FF7E33;" vertex="1" parent="1">
          <mxGeometry x="995" y="609.25" width="48" height="30" as="geometry" />
        </mxCell>
        <mxCell id="rhZC0jBl0L4r4y7zgpdl-1019" value="NODE 3" style="strokeWidth=1;shadow=0;dashed=0;align=center;html=1;shape=mxgraph.mockup.text.textBox;fontColor=#666666;align=left;fontSize=17;spacingLeft=4;spacingTop=-3;strokeColor=#FFFFFF;mainText=;fillColor=#D1FFD1;" vertex="1" parent="1">
          <mxGeometry x="740" y="274" width="80" height="30" as="geometry" />
        </mxCell>
        <mxCell id="rhZC0jBl0L4r4y7zgpdl-1020" value="NODE 1" style="strokeWidth=1;shadow=0;dashed=0;align=center;html=1;shape=mxgraph.mockup.text.textBox;fontColor=#666666;align=left;fontSize=17;spacingLeft=4;spacingTop=-3;strokeColor=#FFFFFF;mainText=;fillColor=#D1FFD1;" vertex="1" parent="1">
          <mxGeometry x="740" y="720" width="80" height="30" as="geometry" />
        </mxCell>
        <mxCell id="rhZC0jBl0L4r4y7zgpdl-1022" value="" style="endArrow=classic;html=1;rounded=0;fillColor=#1C24FF;shadow=1;entryX=0;entryY=0.433;entryDx=0;entryDy=0;entryPerimeter=0;" edge="1" parent="1" target="14">
          <mxGeometry width="50" height="50" relative="1" as="geometry">
            <mxPoint x="150" y="399" as="sourcePoint" />
            <mxPoint x="350" y="400" as="targetPoint" />
          </mxGeometry>
        </mxCell>
        <mxCell id="rhZC0jBl0L4r4y7zgpdl-1023" value="SERVICE" style="strokeWidth=1;shadow=0;dashed=0;align=center;html=1;shape=mxgraph.mockup.text.textBox;fontColor=#666666;align=left;fontSize=17;spacingLeft=4;spacingTop=-3;strokeColor=#666666;mainText=;fillColor=#FF7E33;" vertex="1" parent="1">
          <mxGeometry x="55" y="240" width="85" height="30" as="geometry" />
        </mxCell>
      </root>
    </mxGraphModel>
  </diagram>
</mxfile>
